PathFileType	4	(x/y/z)	S02_P20_T25
DataRate	CameraRate	NumFrames	NumMarkers	Units	OrigDataRate	OrigDataStartFrame	OrigNumFrames
240	240	7	51	mm	240	46	362
Frame#	Time	Sternum			R.Acromium			L.Acromium			Top.Head			R.ASIS			L.ASIS			R.PSIS			L.PSIS			R.Great.Tro			L.Great.Tro			R.Iliac.Crest			L.Iliac.Crest			V.Sacral			R.Thigh.Upper.Post			R.Thigh.Lower.Ant			R.Thigh.Lower.Post			R.Thigh.Upper.Ant			R.Knee.Lat			R.Knee.Med			R.Shank.Upper.Post			R.Shank.Lower.Ant			R.Shank.Lower.Post			R.Shank.Upper.Ant			R.Ankle.Lat			R.Ankle.Med			R.Heel.Upper			R.Heel.Med			R.Heel.Lat			R.Toe.Lat			R.Toe.Med			R.Toe.Tip			L.Thigh.Upper.Post			L.Thigh.Lower.Ant			L.Thigh.Lower.Post			L.Thigh.Upper.Ant			L.Knee.Lat			L.Knee.Med			L.Shank.Upper.Post			L.Shank.Lower.Ant			L.Shank.Lower.Post			L.Shank.Upper.Ant			L.Ankle.Lat			L.Ankle.Med			L.Heel.Upper			L.Heel.Med			L.Heel.Lat			L.Toe.Lat			L.Toe.Med			L.Toe.Tip			Cervical.Spine			Back			
		X1	Y1	Z1	X2	Y2	Z2	X3	Y3	Z3	X4	Y4	Z4	X5	Y5	Z5	X6	Y6	Z6	X7	Y7	Z7	X8	Y8	Z8	X9	Y9	Z9	X10	Y10	Z10	X11	Y11	Z11	X12	Y12	Z12	X13	Y13	Z13	X14	Y14	Z14	X15	Y15	Z15	X16	Y16	Z16	X17	Y17	Z17	X18	Y18	Z18	X19	Y19	Z19	X20	Y20	Z20	X21	Y21	Z21	X22	Y22	Z22	X23	Y23	Z23	X24	Y24	Z24	X25	Y25	Z25	X26	Y26	Z26	X27	Y27	Z27	X28	Y28	Z28	X29	Y29	Z29	X30	Y30	Z30	X31	Y31	Z31	X32	Y32	Z32	X33	Y33	Z33	X34	Y34	Z34	X35	Y35	Z35	X36	Y36	Z36	X37	Y37	Z37	X38	Y38	Z38	X39	Y39	Z39	X40	Y40	Z40	X41	Y41	Z41	X42	Y42	Z42	X43	Y43	Z43	X44	Y44	Z44	X45	Y45	Z45	X46	Y46	Z46	X47	Y47	Z47	X48	Y48	Z48	X49	Y49	Z49	X50	Y50	Z50	X51	Y51	Z51	

46	0.1875	-1044.5	1091.5	324.88	-1162.1	1328.8	463.55	-1159.9	1329.4	169.18	-1074.6	1608.9	309.05	-1095.4	913.08	434.08	-1068	916.94	226.17	-1299.7	948.64	364.82	-1306	960.39	291.67	-1174	791.61	519.68	-1179.5	830.74	127.06	-1196.6	958.72	485.29	-1188.8	965.11	151.33	-1327.1	906.38	318.25	-1162.2	591.62	510.73	-1098.7	512.42	489.42	-1170.6	501.83	495.91	-1092.6	601.58	500.38	-1160	425.42	491.29	-1154.3	410.91	346.75	-1350.6	343.59	469.92	-1372.5	236.98	459.65	-1410	293.87	462.31	-1316.5	280.43	475.46	-1468.3	215.92	452.18	-1438	215.41	369.22	-1502.8	261.48	395.47	-1516.4	237.82	362.3	-1534	242.7	425.35	-1466.7	94.905	466	-1441.3	73.416	361.79	NaN	NaN	NaN	-1151.8	592.19	157.18	-1057.3	534.99	166.83	-1130.7	507.11	183.44	-1087.6	622.25	142.21	-1055.2	452.89	181.76	-1056	456.45	319.65	-1138.2	286.97	182	-1076.2	197.09	205.47	-1143.5	215.27	198.41	-1076.6	271.04	186.67	-1130.7	99.346	219.45	-1120.6	95.833	300.71	-1192.4	66.123	252.72	-1184.3	40.398	285.76	-1185.4	38.517	224.01	-1019.1	34.556	197.57	-999.49	43.252	308.72	-938.28	59.003	261.55	-1235.8	1390.9	315.89	-1310.4	1137	328.02
47	0.19167	-1039.3	1092.4	325	-1157.5	1329.7	463.02	-1154	1329.8	168.66	-1069.3	1609.6	308.36	-1090.2	913.84	433.67	-1062.9	917.78	225.73	-1294.7	949.02	364.61	-1301	960.94	291.5	-1168.3	792.14	519.21	-1174.9	831.66	126.67	-1191.7	959.18	484.86	-1183.8	966.1	151.19	-1322	906.74	317.96	-1153.2	592.29	511.23	-1089	513.94	490.53	-1160.7	502.45	496.63	-1084	603.19	501.25	-1148.9	426.34	492.11	-1141.5	411.6	347.6	-1339.3	346.13	470.19	-1361.8	239.34	459.63	-1399.7	296.41	462	-1305.8	282.56	475.72	-1457.7	219.74	451.96	-1427.2	218.55	369.05	-1491.1	266	394.92	-1505.3	242.65	361.74	-1523.1	247.98	424.78	-1458.9	98.597	466.12	-1433.5	76.008	362.21	NaN	NaN	NaN	-1148.8	592.8	156.72	-1054.8	534.84	166.29	-1128.4	507.55	182.93	-1084.4	622.37	141.74	-1053.5	452.64	181.17	-1054.1	456.2	319.02	-1137.1	287.16	181.66	-1075.6	196.93	205.19	-1142.9	215.59	198.07	-1075.6	270.88	186.34	-1130.6	99.421	219.31	-1120.5	95.993	300.56	-1192.4	66.207	252.64	-1184.2	40.553	285.71	-1185.4	38.582	223.96	-1019	34.544	197.51	-999.47	43.308	308.67	-938.24	58.967	261.48	-1230.3	1391.5	314.96	-1305.2	1137.6	327.11
48	0.19583	-1034	1093.3	325.13	-1152.9	1330.6	462.53	-1148.1	1330.3	168.18	-1064	1610.3	307.69	-1085	914.6	433.3	-1057.8	918.59	225.31	-1289.7	949.47	364.38	-1296.1	961.53	291.32	-1162.7	792.8	518.75	-1170.4	832.55	126.31	-1187	959.65	484.46	-1178.8	967.08	151.02	-1316.9	907.16	317.65	-1144.4	593.1	511.72	-1079.3	515.59	491.61	-1150.9	503.23	497.32	-1075.6	604.92	502.09	-1137.8	427.43	492.91	-1128.8	412.41	348.4	-1328	348.63	470.37	-1350.9	241.69	459.55	-1389.1	298.96	461.65	-1294.9	284.71	475.91	-1447	223.39	451.62	-1416.3	221.55	368.78	-1479.4	270.17	394.22	-1494	247.05	361.02	-1512.1	252.82	424.04	-1450.5	102.19	466.2	-1425	78.547	362.61	NaN	NaN	NaN	-1146	593.43	156.28	-1052.4	534.7	165.77	-1126.2	508	182.43	-1081.3	622.5	141.3	-1052	452.41	180.62	-1052.3	455.95	318.43	-1136.1	287.36	181.37	-1075.1	196.79	204.92	-1142.4	215.91	197.78	-1074.8	270.73	186.02	-1130.5	99.497	219.17	-1120.4	96.151	300.43	-1192.4	66.292	252.58	-1184.2	40.705	285.66	-1185.4	38.651	223.92	-1019	34.53	197.46	-999.44	43.365	308.61	-938.2	58.939	261.4	-1224.9	1392.1	314.08	-1299.9	1138.3	326.21
49	0.2	-1028.8	1094.2	325.28	-1148.4	1331.5	462.08	-1142.2	1330.8	167.72	-1058.7	1611	307.03	-1079.9	915.37	432.98	-1052.7	919.36	224.92	-1284.8	949.97	364.11	-1291.2	962.17	291.1	-1157.1	793.56	518.31	-1165.8	833.42	125.98	-1182.2	960.13	484.08	-1173.8	968.04	150.83	-1311.8	907.65	317.32	-1135.6	594.05	512.2	-1069.6	517.38	492.65	-1141.2	504.15	497.98	-1067.1	606.77	502.92	-1126.7	428.7	493.69	-1116.2	413.36	349.15	-1316.7	351.09	470.45	-1339.9	243.99	459.4	-1378.1	301.5	461.25	-1284	286.86	476.05	-1436.1	226.84	451.18	-1405.2	224.4	368.42	-1467.7	273.97	393.38	-1482.6	250.99	360.18	-1501	257.2	423.17	-1441.5	105.65	466.25	-1415.9	81.009	362.97	NaN	NaN	NaN	-1143.2	594.06	155.87	-1050.1	534.56	165.29	-1124.1	508.47	181.95	-1078.3	622.63	140.89	-1050.5	452.19	180.11	-1050.8	455.71	317.88	-1135.2	287.56	181.13	-1074.6	196.66	204.65	-1142	216.22	197.55	-1074	270.61	185.72	-1130.4	99.576	219.05	-1120.2	96.308	300.3	-1192.3	66.379	252.52	-1184.1	40.856	285.62	-1185.3	38.726	223.88	-1019	34.517	197.41	-999.41	43.42	308.55	-938.16	58.916	261.34	-1219.6	1392.8	313.24	-1294.7	1139	325.33
50	0.20417	-1023.5	1095.1	325.45	-1143.8	1332.5	461.68	-1136.3	1331.3	167.29	-1053.3	1611.7	306.4	-1074.7	916.14	432.7	-1047.7	920.08	224.55	-1279.8	950.53	363.83	-1286.2	962.86	290.85	-1151.5	794.43	517.9	-1161.3	834.26	125.69	-1177.5	960.63	483.73	-1168.8	968.98	150.62	-1306.7	908.2	316.98	-1126.9	595.13	512.66	-1060.1	519.31	493.65	-1131.4	505.21	498.61	-1058.8	608.73	503.71	-1115.6	430.12	494.43	-1103.7	414.44	349.84	-1305.5	353.48	470.44	-1328.8	246.24	459.19	-1367	303.98	460.81	-1273	289	476.13	-1425.2	230.07	450.64	-1393.9	227.09	367.97	-1456.1	277.38	392.41	-1471	254.47	359.22	-1489.8	261.1	422.15	-1432.1	108.94	466.25	-1406.1	83.371	363.29	NaN	NaN	NaN	-1140.5	594.71	155.49	-1047.8	534.43	164.85	-1122.1	508.94	181.5	-1075.3	622.76	140.52	-1049.1	451.99	179.66	-1049.4	455.49	317.4	-1134.4	287.77	180.94	-1074.2	196.55	204.39	-1141.7	216.52	197.38	-1073.3	270.5	185.44	-1130.3	99.66	218.95	-1120.1	96.464	300.19	-1192.3	66.47	252.48	-1184.1	41.005	285.59	-1185.3	38.809	223.86	-1019	34.503	197.37	-999.39	43.471	308.5	-938.12	58.895	261.27	-1214.2	1393.5	312.44	-1289.4	1139.7	324.46
51	0.20833	-1018.3	1096.1	325.64	-1139.3	1333.4	461.31	-1130.3	1331.8	166.88	-1048	1612.4	305.8	-1069.6	916.94	432.46	-1042.7	920.76	224.19	-1274.8	951.16	363.52	-1281.3	963.59	290.58	-1146	795.39	517.52	-1156.8	835.06	125.43	-1172.8	961.15	483.4	-1163.8	969.9	150.38	-1301.7	908.82	316.62	-1118.2	596.34	513.1	-1050.5	521.37	494.58	-1121.7	506.41	499.2	-1050.4	610.8	504.46	-1104.6	431.7	495.14	-1091.4	415.64	350.48	-1294.2	355.81	470.33	-1317.5	248.4	458.93	-1355.6	306.38	460.31	-1262	291.13	476.15	-1414.1	233.06	450.02	-1382.6	229.6	367.44	-1444.4	280.42	391.34	-1459.4	257.49	358.15	-1478.5	264.51	421.03	-1422.1	112.03	466.22	-1395.7	85.607	363.57	NaN	NaN	NaN	-1137.8	595.36	155.14	-1045.7	534.31	164.45	-1120.2	509.43	181.09	-1072.4	622.9	140.2	-1047.7	451.81	179.26	-1048.2	455.28	316.98	-1133.7	287.99	180.79	-1073.9	196.46	204.14	-1141.4	216.8	197.27	-1072.6	270.42	185.19	-1130.2	99.75	218.86	-1120	96.621	300.1	-1192.2	66.566	252.44	-1184	41.154	285.57	-1185.3	38.902	223.84	-1019	34.489	197.33	-999.36	43.518	308.45	-938.08	58.876	261.21	-1208.9	1394.3	311.69	-1284.2	1140.5	323.6
52	0.2125	-1013.1	1097	325.83	-1134.7	1334.4	460.99	-1124.4	1332.3	166.51	-1042.7	1613.2	305.22	-1064.4	917.75	432.25	-1037.7	921.39	223.85	-1269.8	951.85	363.19	-1276.3	964.37	290.28	-1140.5	796.44	517.18	-1152.3	835.82	125.21	-1168	961.72	483.09	-1158.9	970.78	150.12	-1296.7	909.5	316.25	-1109.6	597.66	513.52	-1041	523.55	495.46	-1112	507.73	499.75	-1042.1	612.98	505.17	-1093.7	433.42	495.8	-1079.3	416.96	351.07	-1283	358.07	470.13	-1306.1	250.47	458.61	-1344	308.67	459.77	-1250.9	293.23	476.11	-1402.9	235.79	449.31	-1371	231.91	366.84	-1432.8	283.06	390.19	-1447.7	260.04	357	-1467.1	267.44	419.81	-1411.7	114.89	466.16	-1384.8	87.693	363.81	NaN	NaN	NaN	-1135.2	596.03	154.83	-1043.6	534.19	164.11	-1118.3	509.94	180.71	-1069.6	623.03	139.93	-1046.4	451.65	178.93	-1047.1	455.1	316.63	-1133	288.22	180.69	-1073.6	196.39	203.92	-1141.2	217.05	197.24	-1072.1	270.36	184.97	-1130.1	99.847	218.8	-1119.9	96.779	300.02	-1192.2	66.67	252.42	-1183.9	41.305	285.56	-1185.3	39.005	223.83	-1019	34.477	197.3	-999.33	43.559	308.41	-938.04	58.856	261.15	-1203.6	1395	310.98	-1279	1141.2	322.75
